<?xml version="1.0" encoding="UTF-8"?>
<svg version="1.1" xmlns="http://www.w3.org/2000/svg" width="729" height="374">
<path d="M0 0 C240.57 0 481.14 0 729 0 C729 123.42 729 246.84 729 374 C488.43 374 247.86 374 0 374 C0 250.58 0 127.16 0 0 Z M439.46875 35.0078125 C436.56580154 38.61179378 433.77143617 42.29438279 431 46 C430.57283691 46.56783203 430.14567383 47.13566406 429.70556641 47.72070312 C424.49573848 54.68887344 419.76337014 61.87480232 415.25 69.3125 C414.77876709 70.08682373 414.30753418 70.86114746 413.82202148 71.65893555 C411.9784607 74.69787649 410.14937841 77.73686138 408.39453125 80.828125 C403.35351778 89.28401856 394.88805947 95.78523373 385.35546875 98.3203125 C381.38474562 99.4660933 377.66956788 101.24637564 373.89453125 102.9140625 C370.92180023 104.0293381 368.14043715 104.58127505 365 105 C364.6993748 99.88937156 364.90620513 97.102372 368 93 C370.35424258 91.05422572 372.87633339 89.40947354 375.4375 87.75 C376.88796826 86.78051264 378.33717663 85.80913785 379.78515625 84.8359375 C380.50074707 84.35737305 381.21633789 83.87880859 381.95361328 83.38574219 C390.53691017 77.57343091 398.45322961 71.09918599 406 64 C406.77214844 63.31550781 407.54429687 62.63101563 408.33984375 61.92578125 C414.97639695 55.78838761 423.3653747 45.45315765 424.16796875 36.02734375 C424.18675199 34.01753694 424.09560094 32.00761966 424 30 C423.01 29.01 423.01 29.01 422 28 C407.930329 28 396.96930235 38.9931055 387.4375 48.3125 C383.08002111 52.75578016 379.06351069 57.37652413 375.19140625 62.24609375 C373.70504713 64.1139782 372.1908284 65.95996565 370.65234375 67.78515625 C365.13796523 74.33060387 360.04912475 81.00197456 356.78125 88.97265625 C354.45592103 92.92469563 351.7033774 94.72460832 347.875 97.125 C347.20355957 97.55804443 346.53211914 97.99108887 345.84033203 98.43725586 C339.48639553 102.46488356 333.44700136 105.64717103 326 107 C334.4720169 95.12764978 334.4720169 95.12764978 339.0625 91.5625 C342.26750198 89.3236765 342.26750198 89.3236765 342.4375 86.125 C342.2209375 85.073125 342.2209375 85.073125 342 84 C338.58442978 81.89811064 335.97827 81.5128649 332 82 C329.15079947 83.87769142 329.15079947 83.87769142 327 86 C326.690625 85.030625 326.38125 84.06125 326.0625 83.0625 C325.30476658 80.15934208 325.30476658 80.15934208 324 79 C310.02057267 77.75183685 299.2743951 88.02901041 288.68286133 95.87646484 C283.2794505 99.85533387 277.73267408 103.50795529 272 107 C272.33 108.65 272.66 110.3 273 112 C279.07328688 112.50610724 282.77228537 111.04157942 288 108 C287.938125 108.763125 287.87625 109.52625 287.8125 110.3125 C287.80061087 112.9452669 287.80061087 112.9452669 289 114.75 C292.74275456 117.0892216 296.81111372 117.46607465 301.0546875 116.5625 C306.00031655 114.86905503 309.87977869 112.17600393 314 109 C314.0825 109.763125 314.165 110.52625 314.25 111.3125 C314.79862641 114.04453535 314.79862641 114.04453535 316.625 115.8125 C321.70383848 118.35191924 326.16615583 117.11801785 331.375 115.5625 C339.69060349 112.65309674 347.317313 108.26006815 355 104 C355.103125 105.258125 355.20625 106.51625 355.3125 107.8125 C355.64110376 110.32752913 355.8867275 111.81072054 357.19921875 114.00390625 C363.11030628 117.27359675 372.98432112 113.93894357 379.125 112.375 C385.85694727 110.33730296 391.33435693 107.11626313 397 103 C396.62746094 103.64066406 396.25492187 104.28132813 395.87109375 104.94140625 C392.82690689 110.50720839 391.24862487 113.80282648 393 120 C399.82894589 121.06228047 403.66829572 118.13083142 409.14208984 114.29833984 C411.37115272 112.74063204 413.61673573 111.2081645 415.86328125 109.67578125 C418.45455106 107.9080082 421.04388186 106.13784297 423.62597656 104.35668945 C424.42100586 103.80843506 425.21603516 103.26018066 426.03515625 102.6953125 C427.10842163 101.9530542 427.10842163 101.9530542 428.20336914 101.19580078 C430 100 430 100 432 99 C431.2575 100.5159375 431.2575 100.5159375 430.5 102.0625 C428.89948493 105.81989965 428.52633352 108.89489053 429 113 C429.85219923 115.10242444 429.85219923 115.10242444 432 116 C438.57336228 116.51456309 443.28189084 115.14316654 449.3125 112.625 C450.10978516 112.30789062 450.90707031 111.99078125 451.72851562 111.6640625 C455.09074642 110.30672795 457.96610041 109.02259973 461 107 C461.2475 108.11375 461.495 109.2275 461.75 110.375 C462.58926938 113.9887311 462.58926938 113.9887311 464.8203125 115.2265625 C468.69584696 116.60175215 472.08120024 116.06766062 476 115 C479.8112932 113.11045746 483.96264173 111.03735827 487 108 C487.37125 109.423125 487.37125 109.423125 487.75 110.875 C488.6672193 114.01742673 488.6672193 114.01742673 490.7734375 115.1953125 C498.88093985 118.1253923 507.48102662 113.87421152 514.8359375 110.5703125 C520.26376781 108.21548294 520.26376781 108.21548294 524 104 C524.04022391 101.6670134 524.04320247 99.33293334 524 97 C518.83162931 97.69498924 514.67364234 100.10285124 510.171875 102.56054688 C506.62037746 104.42508308 504.02587449 105.41936193 500 105 C504.52431857 99.12801207 509.0782237 93.72067082 514.62890625 88.7890625 C516.23072645 87.09695845 516.23072645 87.09695845 515.90234375 84.8984375 C515.03352344 82.65159016 515.03352344 82.65159016 512 81 C508.54213985 80.49992206 508.54213985 80.49992206 505 81 C502.55901182 82.85420839 502.55901182 82.85420839 501 85 C500.566875 83.5459375 500.566875 83.5459375 500.125 82.0625 C499.35785318 78.89335797 499.35785318 78.89335797 497 78 C485.95805713 76.56863704 477.45932307 83.46398225 469.125 89.875 C468.11699341 90.65544678 468.11699341 90.65544678 467.08862305 91.45166016 C459.38597475 97.36314512 451.13013144 102.57831809 442 106 C443.86672714 102.08781653 445.6744256 98.44314294 448.25 94.9375 C450.41751457 91.29917198 450.54067673 89.17093474 450 85 C449.04826062 82.47959573 449.04826062 82.47959573 447 81 C441.88784718 80.42708632 438.99072228 81.72521328 434.625 84.3125 C434.0357373 84.65990234 433.44647461 85.00730469 432.83935547 85.36523438 C425.32230869 89.87820947 418.15718637 94.9434943 411 100 C418.07119513 84.67907722 433.56927414 72.86423792 446.5 62.5625 C455.28937349 55.37339865 463.84416896 47.31166207 469 37 C469.61021235 30.89787647 467.98435133 27.12935384 465 22 C453.80465852 21.20033275 446.47524853 26.68218925 439.46875 35.0078125 Z M306.58203125 29.828125 C300.577519 36.12670411 295.09893945 36.87397583 286.6875 37.75 C284.00733618 38.10237966 281.33209799 38.48748258 278.65625 38.87109375 C277.35171875 39.05269043 276.0471875 39.23428711 274.703125 39.42138672 C255.40937803 42.43603468 232.57837259 49.99621221 219.19140625 65.03125 C217.40757885 67.97895167 217.80609277 70.63894134 218 74 C220.31524174 74.77535535 220.31524174 74.77535535 223 75 C224.98523443 73.84924917 224.98523443 73.84924917 226.6875 72 C244.95046568 54.86143333 267.9555231 50.08713012 292 47 C291.22398437 47.93457031 290.44796875 48.86914062 289.6484375 49.83203125 C281.66924099 59.50855684 274.11331205 69.43469822 266.75390625 79.58886719 C264.99384163 82.00846605 263.217502 84.41535375 261.4375 86.8203125 C250.19412717 101.15247636 250.19412717 101.15247636 244.71484375 118.125 C244.88083711 120.07752176 244.88083711 120.07752176 246.12890625 121.75 C248.77119188 123.51520126 250.8975282 123.20683145 254 123 C254.46148437 122.01902344 254.92296875 121.03804688 255.3984375 120.02734375 C263.56534792 102.98808258 274.4794084 88.50525105 286.00146484 73.58935547 C289.05577982 69.6321035 292.08978202 65.65940378 295.125 61.6875 C295.63264893 61.02508301 296.14029785 60.36266602 296.66333008 59.68017578 C297.14825928 59.04708496 297.63318848 58.41399414 298.1328125 57.76171875 C298.84099121 56.84592041 298.84099121 56.84592041 299.56347656 55.91162109 C300.58116745 54.55735195 301.56442666 53.17689287 302.52246094 51.77978516 C303.0280957 51.05452637 303.53373047 50.32926758 304.0546875 49.58203125 C304.50054199 48.92050049 304.94639648 48.25896973 305.40576172 47.57739258 C309.09992062 43.92226844 315.35555009 44.68633208 320.28515625 44.43359375 C321.10838882 44.3909288 321.9316214 44.34826385 322.77980042 44.30430603 C334.73215643 43.75367201 346.70084645 43.97185846 358.66137695 44.09594727 C361.77295489 44.12602341 364.88441769 44.14384822 367.99609375 44.16015625 C369.41782143 44.18034569 369.41782143 44.18034569 370.86827087 44.20094299 C372.18729149 44.20601112 372.18729149 44.20601112 373.53295898 44.21118164 C374.3017186 44.21863907 375.07047821 44.2260965 375.86253357 44.23377991 C378.32175571 43.96480879 379.91032462 43.3114219 382 42 C382.9049261 40.0480428 382.9049261 40.0480428 383 38 C382.67 37.34 382.34 36.68 382 36 C378.36269099 34.78756366 375.07091037 34.91641461 371.2890625 34.96875 C363.98808517 35.01923116 356.69771125 34.94672359 349.3984375 34.78125 C348.41514465 34.75901367 347.43185181 34.73677734 346.41876221 34.71386719 C343.40413643 34.64412085 340.38956979 34.57212121 337.375 34.5 C335.28906689 34.45163336 333.20312939 34.40345521 331.1171875 34.35546875 C326.07807205 34.23914412 321.03902212 34.12029666 316 34 C316.33 33.67 316.66 33.34 317 33 C317.16666667 29.5 317.16666667 29.5 317 26 C315.95991649 24.76423334 315.95991649 24.76423334 313.71362305 24.63574219 C309.90246714 25.14732515 308.98776295 26.89531389 306.58203125 29.828125 Z M152.015625 243.7421875 C151.06545824 245.43757647 150.14527878 247.14999665 149.25 248.875 C148.21892739 250.7249382 147.18367457 252.57255193 146.14453125 254.41796875 C145.36456787 255.8244165 145.36456787 255.8244165 144.56884766 257.25927734 C142.21682168 261.36818546 139.60124737 265.27608159 136.9375 269.1875 C135.93963667 270.66635132 134.94223857 272.14551668 133.9453125 273.625 C133.45708008 274.34816406 132.96884766 275.07132812 132.46582031 275.81640625 C126.22933629 285.10673156 120.19873046 294.50958568 114.57373047 304.18286133 C112.39457667 307.86717875 110.05601732 311.37171219 107.55078125 314.84375 C106.95378418 315.6785791 106.35678711 316.5134082 105.74169922 317.37353516 C104.5677171 319.00122402 103.37609229 320.61637977 102.16455078 322.21630859 C98.74503568 326.96977112 97.35436238 330.25876094 97.69360352 336.15673828 C97.92183619 338.08908607 97.92183619 338.08908607 99 340 C101.83151973 340.41809201 101.83151973 340.41809201 105 340 C108.50680681 336.31083923 110.70802152 332.05245003 113 327.5625 C114.93102595 323.80227955 116.84756542 320.13650834 119.25 316.65234375 C121.18357411 314.25137798 121.18357411 314.25137798 121 312 C121.66 312 122.32 312 123 312 C123.020625 313.03125 123.04125 314.0625 123.0625 315.125 C124.13769964 319.56915849 125.34701833 320.81303182 128.72265625 323.640625 C135.81433812 327.87373871 142.02847613 328.48751683 150.125 328.375 C151.63719116 328.36629883 151.63719116 328.36629883 153.17993164 328.35742188 C161.09622371 328.22057361 168.37484664 327.22014864 176 325 C175.96519531 325.88042969 175.93039063 326.76085937 175.89453125 327.66796875 C175.85392578 329.41013672 175.85392578 329.41013672 175.8125 331.1875 C175.77769531 332.33605469 175.74289063 333.48460937 175.70703125 334.66796875 C176.02676467 338.3044035 176.81841727 340.1105914 179 343 C184.58888744 345.79444372 192.09127517 344.24324569 197.8125 342.5 C209.66804667 338.12327617 219.57252456 331.31751274 229 323 C229.88429687 322.22527344 230.76859375 321.45054687 231.6796875 320.65234375 C233.79851714 318.78104094 235.90526989 316.89818753 238 315 C237.76023438 315.84884766 237.76023438 315.84884766 237.515625 316.71484375 C236.98807538 319.05284773 236.79861268 321.16832549 236.75 323.5625 C236.71132813 324.70912109 236.71132813 324.70912109 236.671875 325.87890625 C236.86126646 328.03914727 236.86126646 328.03914727 238.109375 329.75 C242.55079445 332.68647567 248.93000858 331.47980991 254 331 C260.95857778 329.3801058 266.45345122 326.43723902 272 322 C271.67 322.825 271.34 323.65 271 324.5 C269.83217191 328.5873983 269.8541115 331.76923344 270 336 C273.77777179 337.13333154 276.2774929 337.18477781 279.8125 335.5625 C288.63876858 330.62720097 294.67739681 323.45273512 300 315 C300.83917969 313.67548828 300.83917969 313.67548828 301.6953125 312.32421875 C303.16316522 310.15355991 303.16316522 310.15355991 303 308 C303.8353125 308.5259375 303.8353125 308.5259375 304.6875 309.0625 C307.63245827 310.256402 308.95819016 309.82794824 312 309 C314.34964564 307.79149761 316.56324847 306.43704209 318.81640625 305.05859375 C321 304 321 304 325 304 C326 307 326 307 324.78515625 309.85546875 C324.21667969 310.95503906 323.64820313 312.05460937 323.0625 313.1875 C320.50173446 318.54182796 318.91028708 322.11555021 320 328 C321.71415521 330.3849116 322.99205793 330.8316545 325.84765625 331.30859375 C332.60039602 331.71302281 338.84278993 329.63194315 345 327 C345.66 326.34 346.32 325.68 347 325 C346.96519531 325.64066406 346.93039062 326.28132813 346.89453125 326.94140625 C346.71075219 332.81358478 347.10227914 336.84849625 350 342 C354.07951937 344.71967958 357.29491643 344.73476648 362 344 C380.93798517 337.93817252 396.01318743 326.98681257 410 313 C409.67 314.03125 409.34 315.0625 409 316.125 C408.04949219 319.5344302 407.52576903 322.4432677 408 326 C410.1954898 328.90610728 411.41484518 329.8906605 415.03125 330.56640625 C427.45989464 330.55241003 436.15235988 327.33884371 445.35546875 318.96484375 C447.07132334 316.9147847 447.71029101 315.64146436 448 313 C446.89541022 311.70460236 446.89541022 311.70460236 444.1875 311.5 C439.03447736 311.51064674 435.14277099 314.65351952 430.96484375 317.37109375 C427.88671976 319.06223697 425.46938195 319.63398794 422 320 C422.50858612 314.59365992 423.93448315 310.33691094 426.4375 305.5 C426.78296875 304.81873047 427.1284375 304.13746094 427.484375 303.43554688 C431.40411269 295.90771141 436.13384526 288.94025348 441 282 C441.391875 282.37511719 441.78375 282.75023437 442.1875 283.13671875 C448.22046852 288.29854741 454.99927107 290.09926514 462.47460938 292.25341797 C499.81246739 303.29162077 499.81246739 303.29162077 506 312 C506.25 314.0625 506.25 314.0625 505 316 C496.27491595 322.25929943 485.97653341 323.99664763 475.5 322.5 C474.675 322.335 473.85 322.17 473 322 C473.0625 319.6875 473.0625 319.6875 474 317 C477.5625 315.1875 477.5625 315.1875 481 314 C481.30977972 309.86891254 481.30977972 309.86891254 479.9375 306.0625 C476.68671922 304.27981377 474.51956679 305.07683494 471 306 C466.74337493 308.10097641 462.08125797 310.57732682 460 315 C459.479168 319.01784682 459.74077338 321.4108486 461.375 325.125 C466.05467253 330.25035563 470.78293293 332.64179715 477.71875 333.4140625 C491.69340859 333.96303018 504.61775263 331.46750301 515.72265625 322.62890625 C518.67827732 319.72268274 519.38669053 316.97976823 519.625 313 C519.37614893 309.12255304 518.78172311 306.31987134 515.8984375 303.484375 C501.01454045 291.84676002 482.6588736 286.30662872 464.86987305 280.70117188 C463.90218994 280.39115234 462.93450684 280.08113281 461.9375 279.76171875 C461.08027344 279.49319092 460.22304688 279.22466309 459.33984375 278.94799805 C456.81963909 277.92692598 455.00951069 276.83094448 453 275 C452.35626014 271.29849581 452.56327257 269.63505778 454.703125 266.5234375 C464.00949102 256.2990966 481.2888174 251.52100173 494.73046875 250.8671875 C495.54128906 250.86976563 496.35210937 250.87234375 497.1875 250.875 C498.00605469 250.87242187 498.82460938 250.86984375 499.66796875 250.8671875 C501.90773268 250.99474524 503.85043827 251.37736833 506 252 C503.36748762 258.24550132 497.62815864 260.85572604 491.64453125 263.4609375 C485.03351555 265.95538835 478.17590037 268.53408419 471 268 C468.1875 266.5625 468.1875 266.5625 466 265 C463.33165034 264.66501699 463.33165034 264.66501699 461 265 C459.69253291 266.09923541 459.69253291 266.09923541 459.6875 268.8125 C459.73260101 272.02762976 459.73260101 272.02762976 461.625 274.25 C468.02714747 278.96737182 475.18274258 278.69111222 482.75 277.60546875 C495.17065597 274.9897056 508.60964079 268.7410024 517 259 C519.03909232 255.51295287 519.5802945 253.06206149 519 249 C515.37660166 243.97399585 510.9061892 242.13041307 505 241 C491.20127796 239.66404946 477.85563939 243.28387158 465 248 C464.62875 247.34 464.2575 246.68 463.875 246 C462.1159861 243.75637648 462.1159861 243.75637648 459.19921875 243.328125 C454.48735123 244.31767471 452.69661734 247.06534819 449.8125 250.75 C449.29236328 251.38421875 448.77222656 252.0184375 448.23632812 252.671875 C445.74737736 255.72346215 443.33205119 258.82648705 441 262 C440.76216797 261.09507812 440.76216797 261.09507812 440.51953125 260.171875 C439.01310243 255.01173209 437.85141333 251.83985171 433 249 C423.49306263 246.1673207 415.64926776 248.82800025 407 253 C402.79628228 255.41304316 398.89593163 258.11975836 395 261 C394.43635742 261.41556152 393.87271484 261.83112305 393.29199219 262.25927734 C373.25082528 277.16012287 360.0339153 294.73712545 349 317 C348.30519531 316.78472656 347.61039063 316.56945312 346.89453125 316.34765625 C343.15391587 315.89837856 341.09998213 316.90000805 337.6875 318.4375 C336.61886719 318.91058594 335.55023438 319.38367188 334.44921875 319.87109375 C333.64097656 320.24363281 332.83273437 320.61617188 332 321 C332.75796875 319.49759766 332.75796875 319.49759766 333.53125 317.96484375 C334.18821994 316.62274801 334.84442975 315.28028 335.5 313.9375 C335.83386719 313.28072266 336.16773438 312.62394531 336.51171875 311.94726562 C338.67144646 307.47354393 339.4760128 304.07112302 339 299 C337.93654948 297.01970318 337.93654948 297.01970318 336 296 C334.33941132 295.63759948 332.67278044 295.30115524 331 295 C331.65355469 294.27296875 331.65355469 294.27296875 332.3203125 293.53125 C334.23716122 291.37375793 336.12150576 289.19094156 338 287 C338.50144531 286.43410156 339.00289062 285.86820312 339.51953125 285.28515625 C347.26745902 275.87238449 353.12332861 263.14289835 353.1875 250.9375 C353.20167969 249.70902344 353.21585938 248.48054687 353.23046875 247.21484375 C353.25500575 243.84757578 353.25500575 243.84757578 351 241 C345.22004751 238.91971538 340.06456915 240.1873622 334.640625 242.609375 C329.90046181 245.10567396 325.43367335 247.9992629 321 251 C320.59394531 250.34 320.18789063 249.68 319.76953125 249 C318.21089237 246.80810618 318.21089237 246.80810618 315.94921875 246.6875 C315.20285156 246.790625 314.45648438 246.89375 313.6875 247 C312.94886719 247.0825 312.21023438 247.165 311.44921875 247.25 C298.50798218 251.2128667 285.37071292 267.91395776 276.76953125 277.9453125 C274.09756243 281.04786349 271.34466624 284.07753201 268.6015625 287.1171875 C266.21611617 289.92154148 265.8794445 291.52555904 265.9375 295.125 C265.9684375 297.043125 265.9684375 297.043125 266 299 C270.41230035 299.46763782 272.37680808 299.46617359 275.9921875 296.76171875 C276.97291366 295.75590152 277.93314135 294.72980244 278.875 293.6875 C279.65242554 292.8682605 279.65242554 292.8682605 280.44555664 292.0324707 C284.35241254 287.86149952 288.00254365 283.49242668 291.55859375 279.01953125 C294.62230057 275.23033865 297.8029707 271.55182315 301 267.875 C301.5767749 267.21072998 302.1535498 266.54645996 302.74780273 265.86206055 C306.83707715 261.16292285 306.83707715 261.16292285 308 260 C307.64323158 265.55065289 305.37236035 268.31202363 301.6875 272.1875 C293.53119758 281.22729902 277 300.17724546 277 313 C275.7625 312.855625 274.525 312.71125 273.25 312.5625 C267.43939201 312.50742315 263.61925659 315.24025166 258.89453125 318.37109375 C255.84603977 320.08664159 253.45512869 320.63657165 250 321 C251.10706199 314.55746216 252.99516812 309.34147879 256.25 303.6875 C256.68183594 302.92477783 257.11367188 302.16205566 257.55859375 301.3762207 C265.80653069 287.13726653 275.78330324 273.8760991 286 261 C286.71285156 260.08863281 287.42570313 259.17726563 288.16015625 258.23828125 C290 256 290 256 291.8125 254.625 C293.38039422 252.84569019 293.38039422 252.84569019 292.75 249.375 C292.35631915 246.17736065 292.35631915 246.17736065 291 245 C288.19372054 244.44549477 288.19372054 244.44549477 285 245 C282.84892382 246.84377958 281.21812954 248.47605194 279.4375 250.625 C278.98181641 251.14707031 278.52613281 251.66914063 278.05664062 252.20703125 C276.68400305 253.7885909 275.33890385 255.38982132 274 257 C273.28094482 257.85996582 273.28094482 257.85996582 272.54736328 258.73730469 C271.36247184 260.15617153 270.18089288 261.57780351 269 263 C268.91363281 262.39671875 268.82726562 261.7934375 268.73828125 261.171875 C268.01140493 257.03734915 267.57697577 254.60734292 264.625 251.5 C259.38682744 248.50675854 253.91514183 248.30554274 248 249 C234.04952299 252.950066 221.76565856 262.64962004 211 272 C210.09636719 272.75796875 209.19273437 273.5159375 208.26171875 274.296875 C196.60792203 284.3847443 184.95182729 298.14451814 180 313 C177.26449123 313.86794042 174.67187821 314.54036827 171.875 315.125 C171.12734375 315.29386719 170.3796875 315.46273437 169.609375 315.63671875 C159.41776514 317.89165682 146.67434172 320.58626323 136.625 316.75 C134 315 134 315 133.0625 312.8125 C133.041875 312.214375 133.02125 311.61625 133 311 C133.67546875 310.74605469 134.3509375 310.49210937 135.046875 310.23046875 C144.73685325 306.19297781 154.17024656 301.02782339 162 294 C162.78503906 293.29617188 163.57007813 292.59234375 164.37890625 291.8671875 C169.42118919 287.08530415 173.75114543 281.9474018 177.875 276.375 C178.3272998 275.76591797 178.77959961 275.15683594 179.24560547 274.52929688 C184.71368885 267.04079463 184.71368885 267.04079463 187.2421875 258.3203125 C187.12101562 257.59585937 186.99984375 256.87140625 186.875 256.125 C186.76929688 255.38507813 186.66359375 254.64515625 186.5546875 253.8828125 C186.09810288 251.77913108 186.09810288 251.77913108 184 250 C180.91652174 249.83318891 180.91652174 249.83318891 178 250 C177.649375 251.03125 177.29875 252.0625 176.9375 253.125 C169.23333349 273.31276965 156.47800276 288.98824241 137 299 C134.35376775 300.1359436 131.73540418 301.08819861 129 302 C133.07587542 295.48433999 137.2792004 289.06779507 141.5625 282.6875 C148.56148872 272.24690161 155.34866073 261.66544911 162 251 C162.56066162 250.13544189 163.12132324 249.27088379 163.69897461 248.38012695 C165.26167138 246.04639716 165.26167138 246.04639716 164.75 243.25 C164.2049729 241.0559017 164.2049729 241.0559017 163 240 C157.59531452 239.09921909 155.10314483 238.98136147 152.015625 243.7421875 Z M579 254 C578.37996094 254.93714844 577.75992188 255.87429687 577.12109375 256.83984375 C575.15677795 259.76642106 573.07703402 262.2972114 570.75 264.9375 C555.19413808 283.21758149 531.26466663 312.21516861 530.75 337.5625 C530.71132813 338.70912109 530.71132813 338.70912109 530.671875 339.87890625 C531.08597502 342.55576707 531.8763137 343.3675402 534 345 C538.764874 346.58829133 542.73179443 346.98389049 547.359375 344.9765625 C554.14030331 341.06781083 560.08805644 336.09679895 566 331 C566.75410156 330.35804688 567.50820313 329.71609375 568.28515625 329.0546875 C574.21913775 323.86372598 579.79028199 318.31137657 585.375 312.75 C586.16076416 311.96890869 586.94652832 311.18781738 587.75610352 310.38305664 C590.72422634 307.40662422 593.60668826 304.49405474 596.2265625 301.203125 C598.22942309 298.71498982 600.45154061 296.91134454 603 295 C602.45730469 296.11117187 601.91460938 297.22234375 601.35546875 298.3671875 C592.88988802 313.96463708 592.88988802 313.96463708 593 331 C598.12087636 334.41391758 603.89723424 333.43284439 609.828125 332.60546875 C616.09097348 331.27931914 621.66223619 328.93840659 627.375 326.125 C628.04104248 325.79757812 628.70708496 325.47015625 629.39331055 325.1328125 C633.76978184 322.87995006 637.43845776 320.41606321 641 317 C642.0565109 313.36852515 642.0565109 313.36852515 642 310 C641.67 309.67 641.34 309.34 641 309 C635.5613123 309.34542101 631.72542585 310.9684336 627.1875 313.8125 C612.67173554 322.48201414 612.67173554 322.48201414 607.7265625 321.58984375 C607.15679688 321.39519531 606.58703125 321.20054687 606 321 C606.47659233 315.02935715 607.71562529 310.65159875 610.5 305.375 C610.85602295 304.68623779 611.2120459 303.99747559 611.57885742 303.2878418 C618.43687073 290.26374374 626.68090529 278.3977251 637.06640625 267.9140625 C640.08764869 264.84510046 640.08764869 264.84510046 641.1328125 260.8046875 C640.89488364 258.3204077 640.89488364 258.3204077 640 255 C634.67300058 254.32201826 631.87921142 254.63916768 627.5625 257.9375 C623.54986258 261.35031018 619.84694979 265.05409892 616.171875 268.82421875 C614.2415134 270.75805223 612.26887031 272.54505537 610.1875 274.3125 C606.61101236 277.37500139 603.30609589 280.6527963 600 284 C596.10606303 287.94235397 592.14837188 291.69983262 587.92578125 295.29296875 C585.68863389 297.27599795 583.59945348 299.37193386 581.5 301.5 C578.25920146 304.77924869 574.93561322 307.85297159 571.43359375 310.84765625 C569.3886996 312.65622234 567.39466715 314.49726045 565.41015625 316.37109375 C564.75805176 316.98637939 564.10594727 317.60166504 563.43408203 318.2355957 C562.13355872 319.46630613 560.83618834 320.70035966 559.54248047 321.93823242 C549.17449285 331.73839093 549.17449285 331.73839093 543 333 C547.33360536 310.38746948 572.30539381 273.51454221 591.203125 260.48046875 C593.42015776 259.00626053 593.42015776 259.00626053 593.375 255.4375 C593.35639408 251.93889246 593.35639408 251.93889246 591 250 C585.48950323 249.37617018 582.87254878 250.02278774 579 254 Z " fill="#000000" transform="translate(0,0)"/>
<path d="M0 0 C-1.25852739 4.61543196 -2.78345584 7.28138075 -6.17578125 10.63671875 C-7.00400391 11.46107422 -7.83222656 12.28542969 -8.68554688 13.13476562 C-9.98588867 14.39836914 -9.98588867 14.39836914 -11.3125 15.6875 C-12.16779297 16.54150391 -13.02308594 17.39550781 -13.90429688 18.27539062 C-17.75421962 22.07163512 -21.25351562 25.35224783 -26 28 C-22.45871095 20.36997624 -9.15761119 0 0 0 Z " fill="#000000" transform="translate(460,32)"/>
<path d="M0 0 C0.66 0.33 1.32 0.66 2 1 C-7.84743158 16.1755105 -20.08224333 27.72332318 -35 38 C-35.66 37.67 -36.32 37.34 -37 37 C-26.64772011 23.2574998 -14.00021324 10.06045474 0 0 Z " fill="#000000" transform="translate(411,40)"/>
<path d="M0 0 C3 1 3 1 4 2.75 C4 5 4 5 2.1875 7.25 C1.14401713 8.18825771 0.07744917 9.100952 -1 10 C-1.78761719 10.66902344 -2.57523437 11.33804688 -3.38671875 12.02734375 C-7.46523979 15.39867729 -10.95599868 18.24360668 -16 20 C-15.29661746 12.08982917 -9.98823717 7.42458909 -4.17578125 2.43359375 C-2.625 1.3125 -2.625 1.3125 0 0 Z " fill="#000000" transform="translate(315,88)"/>
<path d="M0 0 C0.99 0.66 1.98 1.32 3 2 C2.94875343 4.76731482 2.47887839 6.49417455 0.55957031 8.52148438 C-1.37438619 10.1638534 -3.35338506 11.71687938 -5.375 13.25 C-6.06078125 13.79140625 -6.7465625 14.3328125 -7.453125 14.890625 C-12.5341199 18.84470663 -12.5341199 18.84470663 -16 20 C-16.33 19.01 -16.66 18.02 -17 17 C-13.2174665 9.55033233 -7.46222675 3.73111337 0 0 Z " fill="#000000" transform="translate(489,87)"/>
<path d="M0 0 C3 1 3 1 4 3 C5.24295886 12.63802522 1.39057449 19.45423327 -4.29199219 26.8972168 C-7.09454417 30.34752843 -10.15856583 33.49691444 -13.3125 36.625 C-13.96677979 37.27799072 -14.62105957 37.93098145 -15.29516602 38.60375977 C-19.84168299 43.06050225 -24.45642917 46.83569052 -30 50 C-28.49360017 45.47476688 -26.98451325 40.95048381 -25.46484375 36.4296875 C-25.21283203 35.67816406 -24.96082031 34.92664063 -24.70117188 34.15234375 C-24.18930731 32.62591386 -23.67627383 31.09987548 -23.16210938 29.57421875 C-22.91138672 28.82527344 -22.66066406 28.07632812 -22.40234375 27.3046875 C-22.15838867 26.57789795 -21.91443359 25.8511084 -21.66308594 25.10229492 C-21.05315868 23.16853807 -20.55783333 21.19961673 -20.07421875 19.23046875 C-17.43778815 11.30200291 -8.75570063 5.53620186 -2 1 C-1.34 0.67 -0.68 0.34 0 0 Z " fill="#000000" transform="translate(338,250)"/>
<path d="M0 0 C1.70295695 2.36933141 2.07286227 4.07647078 1.84375 6.98046875 C-2.44712412 30.29146759 -28.46724731 53.22734886 -47.00292969 66.64990234 C-50.39157561 68.94075955 -53.92340996 70.88865774 -57.5625 72.75 C-58.22886475 73.09732178 -58.89522949 73.44464355 -59.58178711 73.80249023 C-62.51454758 75.22435569 -64.59818991 76.02780504 -67.87890625 75.80078125 C-70 75 -70 75 -71.375 73.4375 C-73.4941818 65.17269099 -69.00509674 57.77617486 -65.04882812 50.76074219 C-59.33808431 41.17371137 -51.65251362 33.04201282 -44 25 C-43.34515625 24.28070313 -42.6903125 23.56140625 -42.015625 22.8203125 C-34.10001229 14.39728872 -12.43745162 -4.46472622 0 0 Z " fill="#000000" transform="translate(429,258)"/>
<path d="M0 0 C2.55146677 3.82720015 2.43512537 5.4311836 2 10 C-1.57508517 23.28212022 -11.70193301 33.35893883 -21 43 C-21.65242676 43.6796582 -22.30485352 44.35931641 -22.97705078 45.05957031 C-51.19960418 74.31536939 -51.19960418 74.31536939 -69 75 C-71.39415007 71.40877489 -71.69094007 69.13828999 -71 65 C-63.48046303 40.06871965 -39.37102034 16.83129637 -17.10253906 4.71728516 C-5.2659645 -1.62029677 -5.2659645 -1.62029677 0 0 Z " fill="#000000" transform="translate(257,259)"/>
<path d="M0 0 C1 2 1 2 0.03125 5.01953125 C-0.4680848 6.28827172 -0.97936399 7.5523509 -1.5 8.8125 C-1.77481201 9.48176514 -2.04962402 10.15103027 -2.33276367 10.84057617 C-7.02438254 22.02563878 -12.38979396 31.3507454 -21 40 C-21.33 39.34 -21.66 38.68 -22 38 C-21.04711914 35.66845703 -21.04711914 35.66845703 -19.53515625 32.7578125 C-18.98569336 31.69626953 -18.43623047 30.63472656 -17.87011719 29.54101562 C-16.97534668 27.85008789 -16.97534668 27.85008789 -16.0625 26.125 C-15.46727539 24.98998047 -14.87205078 23.85496094 -14.25878906 22.68554688 C-4.73804922 4.73804922 -4.73804922 4.73804922 0 0 Z " fill="#000000" transform="translate(304,283)"/>
</svg>
